<svg width="20" height="20" viewBox="0 0 20 20" fill="none" xmlns="http://www.w3.org/2000/svg">
<g id="vuesax/linear/message-notif">
<g id="message-notif">
<path id="Vector" d="M18.3332 8.33342V10.8334C18.3332 14.1667 16.6665 15.8334 13.3332 15.8334H12.9165C12.6582 15.8334 12.4082 15.9584 12.2498 16.1667L10.9998 17.8334C10.4498 18.5667 9.54984 18.5667 8.99984 17.8334L7.74984 16.1667C7.6165 15.9834 7.30817 15.8334 7.08317 15.8334H6.6665C3.33317 15.8334 1.6665 15.0001 1.6665 10.8334V6.66675C1.6665 3.33341 3.33317 1.66675 6.6665 1.66675H11.6665" stroke="#292D32" stroke-width="1.5" stroke-miterlimit="10" stroke-linecap="round" stroke-linejoin="round"/>
<path id="Vector_2" d="M16.2498 5.83341C17.4004 5.83341 18.3332 4.90067 18.3332 3.75008C18.3332 2.59949 17.4004 1.66675 16.2498 1.66675C15.0992 1.66675 14.1665 2.59949 14.1665 3.75008C14.1665 4.90067 15.0992 5.83341 16.2498 5.83341Z" stroke="#F4978E" stroke-width="1.5" stroke-linecap="round" stroke-linejoin="round"/>
<path id="Vector_3" d="M13.3305 9.16667H13.338" stroke="#292D32" stroke-width="2" stroke-linecap="round" stroke-linejoin="round"/>
<path id="Vector_4" d="M9.99607 9.16667H10.0036" stroke="#292D32" stroke-width="2" stroke-linecap="round" stroke-linejoin="round"/>
<path id="Vector_5" d="M6.66209 9.16667H6.66957" stroke="#292D32" stroke-width="2" stroke-linecap="round" stroke-linejoin="round"/>
</g>
</g>
</svg>
